<svg xmlns="http://www.w3.org/2000/svg" viewBox="77.86 101 356.23 310">
  <path id="Selection" fill="white" stroke="none" d="M 165.00,101.00            C 165.00,101.00 189.00,105.58 189.00,105.58              189.00,105.58 249.00,120.00 249.00,120.00              249.00,120.00 241.80,159.00 241.80,159.00              240.99,163.07 239.69,172.52 237.28,175.48              234.57,178.79 217.77,187.84 213.00,190.58              208.77,193.01 198.49,199.47 194.00,199.61              190.93,199.70 181.45,196.15 178.00,195.00              178.00,195.00 142.00,183.00 142.00,183.00              142.00,183.00 165.00,101.00 165.00,101.00 Z            M 263.00,120.00            C 263.00,120.00 280.00,115.88 280.00,115.88              280.00,115.88 322.00,105.87 322.00,105.87              326.21,104.82 341.45,100.20 344.73,101.61              348.38,103.19 351.07,116.93 352.34,121.00              352.34,121.00 363.42,159.00 363.42,159.00              363.42,159.00 370.00,183.00 370.00,183.00              370.00,183.00 335.00,194.67 335.00,194.67              331.44,195.85 321.11,199.70 318.00,199.61              313.52,199.47 302.26,192.49 298.00,189.99              293.75,187.49 277.10,178.20 274.82,175.39              272.88,173.01 271.18,163.47 270.42,160.00              270.42,160.00 263.00,120.00 263.00,120.00 Z            M 134.04,195.95            C 136.00,195.94 135.94,195.60 138.00,196.50              141.21,197.90 155.42,210.77 159.00,213.95              163.10,217.59 173.69,225.74 175.83,230.00              177.49,233.32 177.00,240.14 177.00,244.00              177.00,244.00 177.00,274.00 177.00,274.00              176.99,276.64 177.19,279.58 175.98,282.00              174.03,285.87 158.29,298.73 154.00,302.42              150.73,305.25 140.36,315.04 137.00,316.04              132.07,317.51 125.27,308.27 122.00,305.00              122.00,305.00 100.96,283.00 100.96,283.00              100.96,283.00 88.17,270.00 88.17,270.00              85.67,267.24 77.86,259.37 77.86,256.00              77.86,252.52 87.42,243.04 90.17,240.00              90.17,240.00 100.96,229.00 100.96,229.00              100.96,229.00 120.00,209.00 120.00,209.00              123.81,205.19 129.49,198.12 134.04,195.95 Z            M 254.00,195.59            C 261.87,194.88 270.35,201.93 277.00,205.72              277.00,205.72 297.00,217.28 297.00,217.28              308.24,223.67 308.95,223.01 309.00,231.00              309.00,231.00 309.00,279.00 309.00,279.00              308.99,282.01 309.29,285.24 307.40,287.79              305.45,290.44 299.04,293.68 296.00,295.42              296.00,295.42 272.00,309.28 272.00,309.28              268.52,311.26 261.52,315.91 258.00,316.59              251.93,317.77 238.54,308.50 233.00,305.20              233.00,305.20 213.00,293.58 213.00,293.58              210.67,292.24 205.35,289.57 203.99,287.47              202.84,285.70 203.01,283.04 203.00,281.00              203.00,281.00 203.00,232.00 203.00,232.00              203.02,222.77 203.32,223.93 216.00,216.72              216.00,216.72 254.00,195.59 254.00,195.59 Z            M 375.00,195.96            C 380.92,195.40 382.52,198.99 386.17,203.00              386.17,203.00 406.17,224.00 406.17,224.00              406.17,224.00 427.58,246.00 427.58,246.00              429.35,248.05 433.54,252.49 434.04,255.00              434.85,259.11 425.80,267.90 422.91,271.00              422.91,271.00 391.00,304.00 391.00,304.00              388.62,306.38 380.51,315.43 377.91,316.13              374.25,317.12 370.53,313.29 368.00,311.13              368.00,311.13 348.00,293.73 348.00,293.73              344.77,290.96 337.79,285.52 336.02,282.00              334.51,279.00 335.00,271.59 335.00,268.00              335.00,268.00 335.00,238.00 335.00,238.00              335.01,235.36 334.81,232.42 336.02,230.00              337.57,226.91 341.38,223.98 344.00,221.73              344.00,221.73 360.00,207.85 360.00,207.85              364.54,203.85 369.62,198.60 375.00,195.96 Z            M 142.00,329.00            C 142.00,329.00 178.00,317.00 178.00,317.00              178.00,317.00 195.00,312.48 195.00,312.48              195.00,312.48 207.00,318.00 207.00,318.00              207.00,318.00 227.00,329.58 227.00,329.58              227.00,329.58 237.86,337.32 237.86,337.32              237.86,337.32 244.60,367.00 244.60,367.00              244.60,367.00 248.00,384.00 248.00,384.00              248.00,384.00 248.00,391.28 248.00,391.28              248.00,391.28 242.00,393.79 242.00,393.79              242.00,393.79 227.00,397.37 227.00,397.37              227.00,397.37 188.00,406.65 188.00,406.65              188.00,406.65 165.00,411.00 165.00,411.00              165.00,411.00 142.00,329.00 142.00,329.00 Z            M 370.00,329.00            C 370.00,329.00 352.71,390.00 352.71,390.00              351.54,394.07 348.27,408.86 344.73,410.39              341.94,411.59 335.03,409.38 332.00,408.63              332.00,408.63 301.00,401.13 301.00,401.13              301.00,401.13 273.00,394.37 273.00,394.37              270.46,393.75 264.72,393.10 263.61,390.57              262.82,388.77 263.83,384.94 264.20,383.00              264.20,383.00 267.20,367.00 267.20,367.00              267.20,367.00 273.43,338.18 273.43,338.18              275.22,334.82 280.73,331.94 284.00,330.01              284.00,330.01 305.00,318.00 305.00,318.00              307.89,316.35 313.84,312.87 317.00,312.57              320.41,312.24 330.34,315.78 334.00,317.00              334.00,317.00 370.00,329.00 370.00,329.00 Z"/>
</svg>